<mxfile host="app.diagrams.net" modified="2020-08-23T12:43:23.071Z" agent="5.0 (Windows NT 10.0; Win64; x64) AppleWebKit/537.36 (KHTML, like Gecko) Chrome/84.0.4147.135 Safari/537.36" etag="VXWfRsm3GKzteal7H-4l" version="13.6.4" type="github">
  <diagram id="KbTCNkSI2anwOCVEkOJ9" name="Page-1">
    <mxGraphModel dx="1108" dy="450" grid="1" gridSize="10" guides="1" tooltips="1" connect="1" arrows="1" fold="1" page="1" pageScale="1" pageWidth="850" pageHeight="1100" math="0" shadow="0">
      <root>
        <mxCell id="0" />
        <mxCell id="1" parent="0" />
        <mxCell id="mR9HRBYkTr1gSna-XHyO-3" value="" style="edgeStyle=orthogonalEdgeStyle;rounded=0;orthogonalLoop=1;jettySize=auto;html=1;" parent="1" source="mR9HRBYkTr1gSna-XHyO-1" target="mR9HRBYkTr1gSna-XHyO-2" edge="1">
          <mxGeometry relative="1" as="geometry" />
        </mxCell>
        <mxCell id="mR9HRBYkTr1gSna-XHyO-1" value="START&lt;br&gt;(Training on Data Base)" style="rounded=1;whiteSpace=wrap;html=1;" parent="1" vertex="1">
          <mxGeometry x="320" y="20" width="160" height="60" as="geometry" />
        </mxCell>
        <mxCell id="mR9HRBYkTr1gSna-XHyO-5" value="" style="edgeStyle=orthogonalEdgeStyle;rounded=0;orthogonalLoop=1;jettySize=auto;html=1;" parent="1" source="mR9HRBYkTr1gSna-XHyO-2" target="mR9HRBYkTr1gSna-XHyO-4" edge="1">
          <mxGeometry relative="1" as="geometry" />
        </mxCell>
        <mxCell id="mR9HRBYkTr1gSna-XHyO-56" style="edgeStyle=orthogonalEdgeStyle;rounded=0;orthogonalLoop=1;jettySize=auto;html=1;entryX=0.07;entryY=0.4;entryDx=0;entryDy=0;entryPerimeter=0;" parent="1" source="mR9HRBYkTr1gSna-XHyO-2" target="mR9HRBYkTr1gSna-XHyO-55" edge="1">
          <mxGeometry relative="1" as="geometry" />
        </mxCell>
        <mxCell id="mR9HRBYkTr1gSna-XHyO-2" value="Initialize Recognizer" style="whiteSpace=wrap;html=1;rounded=1;" parent="1" vertex="1">
          <mxGeometry x="340" y="140" width="120" height="60" as="geometry" />
        </mxCell>
        <mxCell id="mR9HRBYkTr1gSna-XHyO-7" value="" style="edgeStyle=orthogonalEdgeStyle;rounded=0;orthogonalLoop=1;jettySize=auto;html=1;" parent="1" source="mR9HRBYkTr1gSna-XHyO-4" target="mR9HRBYkTr1gSna-XHyO-6" edge="1">
          <mxGeometry relative="1" as="geometry" />
        </mxCell>
        <mxCell id="mR9HRBYkTr1gSna-XHyO-4" value="Initialize trainer" style="whiteSpace=wrap;html=1;rounded=1;" parent="1" vertex="1">
          <mxGeometry x="340" y="220" width="120" height="60" as="geometry" />
        </mxCell>
        <mxCell id="mR9HRBYkTr1gSna-XHyO-25" style="edgeStyle=orthogonalEdgeStyle;rounded=0;orthogonalLoop=1;jettySize=auto;html=1;entryX=0.07;entryY=0.4;entryDx=0;entryDy=0;entryPerimeter=0;" parent="1" source="mR9HRBYkTr1gSna-XHyO-6" target="mR9HRBYkTr1gSna-XHyO-9" edge="1">
          <mxGeometry relative="1" as="geometry" />
        </mxCell>
        <mxCell id="mR9HRBYkTr1gSna-XHyO-27" value="" style="edgeStyle=orthogonalEdgeStyle;rounded=0;orthogonalLoop=1;jettySize=auto;html=1;" parent="1" source="mR9HRBYkTr1gSna-XHyO-6" target="mR9HRBYkTr1gSna-XHyO-26" edge="1">
          <mxGeometry relative="1" as="geometry" />
        </mxCell>
        <mxCell id="mR9HRBYkTr1gSna-XHyO-6" value="Move to img directory" style="whiteSpace=wrap;html=1;rounded=1;" parent="1" vertex="1">
          <mxGeometry x="340" y="320" width="120" height="60" as="geometry" />
        </mxCell>
        <mxCell id="mR9HRBYkTr1gSna-XHyO-9" value="&lt;div style=&quot;text-align: left&quot;&gt;&lt;br&gt;&lt;/div&gt;" style="ellipse;shape=cloud;whiteSpace=wrap;html=1;rounded=0;" parent="1" vertex="1">
          <mxGeometry x="530" y="180" width="250" height="240" as="geometry" />
        </mxCell>
        <mxCell id="mR9HRBYkTr1gSna-XHyO-10" value="" style="endArrow=none;html=1;" parent="1" edge="1">
          <mxGeometry width="50" height="50" relative="1" as="geometry">
            <mxPoint x="610" y="370" as="sourcePoint" />
            <mxPoint x="610" y="260" as="targetPoint" />
          </mxGeometry>
        </mxCell>
        <mxCell id="mR9HRBYkTr1gSna-XHyO-11" value="img" style="text;html=1;align=center;verticalAlign=middle;resizable=0;points=[];autosize=1;" parent="1" vertex="1">
          <mxGeometry x="600" y="240" width="30" height="20" as="geometry" />
        </mxCell>
        <mxCell id="mR9HRBYkTr1gSna-XHyO-12" value="" style="endArrow=none;html=1;" parent="1" edge="1">
          <mxGeometry width="50" height="50" relative="1" as="geometry">
            <mxPoint x="610" y="280" as="sourcePoint" />
            <mxPoint x="640" y="280" as="targetPoint" />
          </mxGeometry>
        </mxCell>
        <mxCell id="mR9HRBYkTr1gSna-XHyO-13" value="Person1" style="text;html=1;align=center;verticalAlign=middle;resizable=0;points=[];autosize=1;" parent="1" vertex="1">
          <mxGeometry x="640" y="270" width="60" height="20" as="geometry" />
        </mxCell>
        <mxCell id="mR9HRBYkTr1gSna-XHyO-14" value="" style="aspect=fixed;perimeter=ellipsePerimeter;html=1;align=center;shadow=0;dashed=0;spacingTop=3;image;image=img/lib/active_directory/folder.svg;container=0;treeFolding=0;" parent="1" vertex="1">
          <mxGeometry x="607" y="218.08" width="16" height="21.92" as="geometry" />
        </mxCell>
        <mxCell id="mR9HRBYkTr1gSna-XHyO-15" value="" style="endArrow=none;html=1;" parent="1" edge="1">
          <mxGeometry width="50" height="50" relative="1" as="geometry">
            <mxPoint x="630" y="300" as="sourcePoint" />
            <mxPoint x="660" y="300" as="targetPoint" />
          </mxGeometry>
        </mxCell>
        <mxCell id="mR9HRBYkTr1gSna-XHyO-16" value="img1.jpg" style="text;html=1;align=center;verticalAlign=middle;resizable=0;points=[];autosize=1;" parent="1" vertex="1">
          <mxGeometry x="660" y="290" width="60" height="20" as="geometry" />
        </mxCell>
        <mxCell id="mR9HRBYkTr1gSna-XHyO-17" value="" style="endArrow=none;html=1;" parent="1" edge="1">
          <mxGeometry width="50" height="50" relative="1" as="geometry">
            <mxPoint x="630" y="320" as="sourcePoint" />
            <mxPoint x="660" y="320" as="targetPoint" />
          </mxGeometry>
        </mxCell>
        <mxCell id="mR9HRBYkTr1gSna-XHyO-19" value="" style="endArrow=none;html=1;" parent="1" edge="1">
          <mxGeometry width="50" height="50" relative="1" as="geometry">
            <mxPoint x="610" y="340" as="sourcePoint" />
            <mxPoint x="640" y="340" as="targetPoint" />
          </mxGeometry>
        </mxCell>
        <mxCell id="mR9HRBYkTr1gSna-XHyO-20" value="Person2" style="text;html=1;align=center;verticalAlign=middle;resizable=0;points=[];autosize=1;" parent="1" vertex="1">
          <mxGeometry x="640" y="330" width="60" height="20" as="geometry" />
        </mxCell>
        <mxCell id="mR9HRBYkTr1gSna-XHyO-21" value="" style="endArrow=none;html=1;" parent="1" edge="1">
          <mxGeometry width="50" height="50" relative="1" as="geometry">
            <mxPoint x="630" y="360" as="sourcePoint" />
            <mxPoint x="660" y="360" as="targetPoint" />
          </mxGeometry>
        </mxCell>
        <mxCell id="mR9HRBYkTr1gSna-XHyO-22" value="img3.jpg" style="text;html=1;align=center;verticalAlign=middle;resizable=0;points=[];autosize=1;" parent="1" vertex="1">
          <mxGeometry x="660" y="350" width="60" height="20" as="geometry" />
        </mxCell>
        <mxCell id="mR9HRBYkTr1gSna-XHyO-23" value="" style="endArrow=none;html=1;" parent="1" edge="1">
          <mxGeometry width="50" height="50" relative="1" as="geometry">
            <mxPoint x="630" y="380" as="sourcePoint" />
            <mxPoint x="660" y="380" as="targetPoint" />
          </mxGeometry>
        </mxCell>
        <mxCell id="mR9HRBYkTr1gSna-XHyO-24" value="img4.jpg" style="text;html=1;align=center;verticalAlign=middle;resizable=0;points=[];autosize=1;" parent="1" vertex="1">
          <mxGeometry x="660" y="370" width="60" height="20" as="geometry" />
        </mxCell>
        <mxCell id="mR9HRBYkTr1gSna-XHyO-29" value="" style="edgeStyle=orthogonalEdgeStyle;rounded=0;orthogonalLoop=1;jettySize=auto;html=1;entryX=0.5;entryY=0;entryDx=0;entryDy=0;" parent="1" source="mR9HRBYkTr1gSna-XHyO-26" target="mR9HRBYkTr1gSna-XHyO-30" edge="1">
          <mxGeometry relative="1" as="geometry">
            <mxPoint x="400" y="530" as="targetPoint" />
          </mxGeometry>
        </mxCell>
        <mxCell id="mR9HRBYkTr1gSna-XHyO-26" value="Walk through all files" style="whiteSpace=wrap;html=1;rounded=1;" parent="1" vertex="1">
          <mxGeometry x="340" y="420" width="120" height="60" as="geometry" />
        </mxCell>
        <mxCell id="mR9HRBYkTr1gSna-XHyO-52" value="" style="edgeStyle=orthogonalEdgeStyle;rounded=0;orthogonalLoop=1;jettySize=auto;html=1;" parent="1" source="mR9HRBYkTr1gSna-XHyO-30" target="mR9HRBYkTr1gSna-XHyO-51" edge="1">
          <mxGeometry relative="1" as="geometry" />
        </mxCell>
        <mxCell id="mR9HRBYkTr1gSna-XHyO-30" value="if&amp;nbsp; file end with .jpg&amp;nbsp;" style="rhombus;whiteSpace=wrap;html=1;" parent="1" vertex="1">
          <mxGeometry x="250" y="540" width="300" height="110" as="geometry" />
        </mxCell>
        <mxCell id="mR9HRBYkTr1gSna-XHyO-46" value="img2.jpg" style="text;html=1;align=center;verticalAlign=middle;resizable=0;points=[];autosize=1;" parent="1" vertex="1">
          <mxGeometry x="660" y="310" width="60" height="20" as="geometry" />
        </mxCell>
        <mxCell id="mR9HRBYkTr1gSna-XHyO-49" value="" style="endArrow=classic;html=1;exitX=0.5;exitY=1;exitDx=0;exitDy=0;entryX=0.5;entryY=0;entryDx=0;entryDy=0;" parent="1" source="mR9HRBYkTr1gSna-XHyO-30" target="mR9HRBYkTr1gSna-XHyO-57" edge="1">
          <mxGeometry relative="1" as="geometry">
            <mxPoint x="140" y="570" as="sourcePoint" />
            <mxPoint x="400" y="720" as="targetPoint" />
            <Array as="points" />
          </mxGeometry>
        </mxCell>
        <mxCell id="mR9HRBYkTr1gSna-XHyO-50" value="YES" style="edgeLabel;resizable=0;html=1;align=center;verticalAlign=middle;" parent="mR9HRBYkTr1gSna-XHyO-49" connectable="0" vertex="1">
          <mxGeometry relative="1" as="geometry" />
        </mxCell>
        <mxCell id="mR9HRBYkTr1gSna-XHyO-51" value="Skip" style="whiteSpace=wrap;html=1;" parent="1" vertex="1">
          <mxGeometry x="670" y="565" width="120" height="60" as="geometry" />
        </mxCell>
        <mxCell id="mR9HRBYkTr1gSna-XHyO-53" value="NO" style="text;html=1;align=center;verticalAlign=middle;resizable=0;points=[];autosize=1;" parent="1" vertex="1">
          <mxGeometry x="605" y="580" width="30" height="20" as="geometry" />
        </mxCell>
        <mxCell id="mR9HRBYkTr1gSna-XHyO-54" value="" style="endArrow=classic;html=1;exitX=0.5;exitY=0;exitDx=0;exitDy=0;" parent="1" source="mR9HRBYkTr1gSna-XHyO-51" edge="1">
          <mxGeometry width="50" height="50" relative="1" as="geometry">
            <mxPoint x="570" y="550" as="sourcePoint" />
            <mxPoint x="400" y="520" as="targetPoint" />
            <Array as="points">
              <mxPoint x="730" y="520" />
            </Array>
          </mxGeometry>
        </mxCell>
        <mxCell id="mR9HRBYkTr1gSna-XHyO-55" value="Trainer require two argument&lt;br&gt;1. List of faces&lt;br&gt;[faceImg1,faceImg2,faceImg3,faceImg4]&lt;br&gt;2. List of corresponding ids&lt;br&gt;[0,0,1,1]&lt;br&gt;" style="ellipse;shape=cloud;whiteSpace=wrap;html=1;" parent="1" vertex="1">
          <mxGeometry x="490" y="60" width="340" height="130" as="geometry" />
        </mxCell>
        <mxCell id="mR9HRBYkTr1gSna-XHyO-59" style="edgeStyle=orthogonalEdgeStyle;rounded=0;orthogonalLoop=1;jettySize=auto;html=1;" parent="1" source="mR9HRBYkTr1gSna-XHyO-57" edge="1">
          <mxGeometry relative="1" as="geometry">
            <mxPoint x="650" y="720" as="targetPoint" />
            <Array as="points" />
          </mxGeometry>
        </mxCell>
        <mxCell id="mR9HRBYkTr1gSna-XHyO-61" value="" style="edgeStyle=orthogonalEdgeStyle;rounded=0;orthogonalLoop=1;jettySize=auto;html=1;" parent="1" source="mR9HRBYkTr1gSna-XHyO-57" target="mR9HRBYkTr1gSna-XHyO-60" edge="1">
          <mxGeometry relative="1" as="geometry" />
        </mxCell>
        <mxCell id="mR9HRBYkTr1gSna-XHyO-57" value="Create a Dictonary&lt;br&gt;{Labels: id}&lt;br&gt;Labels = Person name&lt;br&gt;id = any no provided to person" style="rounded=0;whiteSpace=wrap;html=1;" parent="1" vertex="1">
          <mxGeometry x="270" y="690" width="260" height="60" as="geometry" />
        </mxCell>
        <mxCell id="mR9HRBYkTr1gSna-XHyO-58" value="It is use to obtain the&amp;nbsp;&lt;br&gt;person name using its id.&lt;br&gt;Its use in &lt;br&gt;next recognizing module" style="ellipse;shape=cloud;whiteSpace=wrap;html=1;" parent="1" vertex="1">
          <mxGeometry x="640" y="660" width="180" height="130" as="geometry" />
        </mxCell>
        <mxCell id="mR9HRBYkTr1gSna-XHyO-63" value="" style="edgeStyle=orthogonalEdgeStyle;rounded=0;orthogonalLoop=1;jettySize=auto;html=1;" parent="1" source="mR9HRBYkTr1gSna-XHyO-60" target="mR9HRBYkTr1gSna-XHyO-62" edge="1">
          <mxGeometry relative="1" as="geometry" />
        </mxCell>
        <mxCell id="mR9HRBYkTr1gSna-XHyO-60" value="Get face from image" style="whiteSpace=wrap;html=1;rounded=0;" parent="1" vertex="1">
          <mxGeometry x="340" y="780" width="120" height="60" as="geometry" />
        </mxCell>
        <mxCell id="mR9HRBYkTr1gSna-XHyO-65" style="edgeStyle=orthogonalEdgeStyle;rounded=0;orthogonalLoop=1;jettySize=auto;html=1;entryX=0.5;entryY=0;entryDx=0;entryDy=0;" parent="1" source="mR9HRBYkTr1gSna-XHyO-62" target="mR9HRBYkTr1gSna-XHyO-64" edge="1">
          <mxGeometry relative="1" as="geometry" />
        </mxCell>
        <mxCell id="mR9HRBYkTr1gSna-XHyO-62" value="Create&lt;br&gt;faces and ids list" style="whiteSpace=wrap;html=1;rounded=0;" parent="1" vertex="1">
          <mxGeometry x="340" y="880" width="120" height="60" as="geometry" />
        </mxCell>
        <mxCell id="mR9HRBYkTr1gSna-XHyO-64" value="If all image walked&amp;nbsp;" style="rhombus;whiteSpace=wrap;html=1;" parent="1" vertex="1">
          <mxGeometry x="315" y="970" width="170" height="80" as="geometry" />
        </mxCell>
        <mxCell id="mR9HRBYkTr1gSna-XHyO-66" value="" style="endArrow=classic;html=1;exitX=0.5;exitY=1;exitDx=0;exitDy=0;entryX=0.5;entryY=0;entryDx=0;entryDy=0;" parent="1" source="mR9HRBYkTr1gSna-XHyO-64" target="mR9HRBYkTr1gSna-XHyO-73" edge="1">
          <mxGeometry relative="1" as="geometry">
            <mxPoint x="370" y="1060" as="sourcePoint" />
            <mxPoint x="400" y="1130" as="targetPoint" />
          </mxGeometry>
        </mxCell>
        <mxCell id="mR9HRBYkTr1gSna-XHyO-67" value="YES" style="edgeLabel;resizable=0;html=1;align=center;verticalAlign=middle;" parent="mR9HRBYkTr1gSna-XHyO-66" connectable="0" vertex="1">
          <mxGeometry relative="1" as="geometry" />
        </mxCell>
        <mxCell id="mR9HRBYkTr1gSna-XHyO-69" value="" style="endArrow=classic;html=1;exitX=0;exitY=0.5;exitDx=0;exitDy=0;" parent="1" source="mR9HRBYkTr1gSna-XHyO-64" edge="1">
          <mxGeometry relative="1" as="geometry">
            <mxPoint x="140" y="1070" as="sourcePoint" />
            <mxPoint x="390" y="520" as="targetPoint" />
            <Array as="points">
              <mxPoint x="210" y="1010" />
              <mxPoint x="210" y="520" />
            </Array>
          </mxGeometry>
        </mxCell>
        <mxCell id="mR9HRBYkTr1gSna-XHyO-70" value="NO" style="edgeLabel;resizable=0;html=1;align=center;verticalAlign=middle;" parent="mR9HRBYkTr1gSna-XHyO-69" connectable="0" vertex="1">
          <mxGeometry relative="1" as="geometry" />
        </mxCell>
        <mxCell id="mR9HRBYkTr1gSna-XHyO-75" value="" style="edgeStyle=orthogonalEdgeStyle;rounded=0;orthogonalLoop=1;jettySize=auto;html=1;" parent="1" source="mR9HRBYkTr1gSna-XHyO-73" target="mR9HRBYkTr1gSna-XHyO-74" edge="1">
          <mxGeometry relative="1" as="geometry" />
        </mxCell>
        <mxCell id="mR9HRBYkTr1gSna-XHyO-73" value="Save&lt;br&gt;Labels_ids dictionary on disk" style="rounded=0;whiteSpace=wrap;html=1;" parent="1" vertex="1">
          <mxGeometry x="340" y="1100" width="120" height="60" as="geometry" />
        </mxCell>
        <mxCell id="mR9HRBYkTr1gSna-XHyO-74" value="Save recognizer" style="whiteSpace=wrap;html=1;rounded=0;" parent="1" vertex="1">
          <mxGeometry x="340" y="1200" width="120" height="60" as="geometry" />
        </mxCell>
      </root>
    </mxGraphModel>
  </diagram>
</mxfile>
